<svg width="100%" height="100%" viewBox="0 0 16 16" fill="none" xmlns="http://www.w3.org/2000/svg">
<rect width="16" height="16" rx="8" fill="#D0D0D0"/>
<path d="M9.13184 11H8.63184H7.63184H7.13184V10.5185H7.63184V7.38889H7.13184V6.90741H7.63184H8.63184V7.38889V10.5185H9.13184V11Z" fill="#2D2B2E"/>
<path d="M8.13184 4.5C8.54609 4.5 8.88184 4.82331 8.88184 5.22222C8.88184 5.62113 8.54609 5.94444 8.13184 5.94444C7.71759 5.94444 7.38184 5.62113 7.38184 5.22222C7.38184 4.82331 7.71759 4.5 8.13184 4.5Z" fill="#2D2B2E"/>
<path fill-rule="evenodd" clip-rule="evenodd" d="M8.88184 5.22222C8.88184 4.82331 8.54609 4.5 8.13184 4.5C7.71759 4.5 7.38184 4.82331 7.38184 5.22222C7.38184 5.62113 7.71759 5.94444 8.13184 5.94444C8.54609 5.94444 8.88184 5.62113 8.88184 5.22222ZM8.63184 11H9.13184V10.5185H8.63184V7.38889V6.90741H7.63184H7.13184V7.38889H7.63184V10.5185H7.13184V11H7.63184H8.63184Z" fill="#2D2B2E"/>
</svg>
